<svg width="64" height="34" viewBox="0 0 64 34" fill="none" xmlns="http://www.w3.org/2000/svg">
<path d="M17 22.5714L18.7143 22.5714L18.7143 24.2857L17 24.2857L17 22.5714ZM18.7143 22.5714L20.4286 22.5714L20.4286 24.2857L18.7143 24.2857L18.7143 22.5714ZM18.7143 24.2857L20.4286 24.2857L20.4286 26L18.7143 26L18.7143 24.2857ZM17 24.2857L18.7143 24.2857L18.7143 26L17 26L17 24.2857ZM34.1562 14L34.1562 15.7143L32.442 15.7143L32.442 14L34.1562 14ZM34.1562 12.2857L34.1562 14L32.442 14L32.442 12.2857L34.1562 12.2857ZM32.442 12.2857L32.442 14L30.7277 14L30.7277 12.2857L32.442 12.2857ZM32.442 14L32.442 15.7143L30.7277 15.7143L30.7277 14L32.442 14ZM32.442 15.7143L32.442 17.4286L30.7277 17.4286L30.7277 15.7143L32.442 15.7143ZM32.442 17.4286L32.442 19.1429L30.7277 19.1429L30.7277 17.4286L32.442 17.4286ZM32.442 19.1429L32.442 20.8571L30.7277 20.8571L30.7277 19.1429L32.442 19.1429ZM34.1562 19.1429L34.1562 20.8571L32.442 20.8571L32.442 19.1429L34.1562 19.1429ZM34.1562 17.4286L34.1562 19.1429L32.442 19.1429L32.442 17.4286L34.1562 17.4286ZM34.1562 15.7143L34.1562 17.4286L32.442 17.4286L32.442 15.7143L34.1562 15.7143ZM34.1562 20.8571L34.1562 22.5714L32.442 22.5714L32.442 20.8571L34.1562 20.8571ZM32.442 20.8571L32.442 22.5714L30.7277 22.5714L30.7277 20.8571L32.442 20.8571ZM32.442 22.5714L32.442 24.2857L30.7277 24.2857L30.7277 22.5714L32.442 22.5714ZM32.442 24.2857L32.442 26L30.7277 26L30.7277 24.2857L32.442 24.2857ZM34.1562 24.2857L34.1562 26L32.442 26L32.442 24.2857L34.1562 24.2857ZM34.1562 22.5714L34.1562 24.2857L32.442 24.2857L32.442 22.5714L34.1562 22.5714ZM25.5848 24.2857L25.5848 26L23.8705 26L23.8705 24.2857L25.5848 24.2857ZM23.8705 22.5714L23.8705 24.2857L22.1562 24.2857L22.1562 22.5714L23.8705 22.5714ZM23.8705 20.8571L23.8705 22.5714L22.1562 22.5714L22.1562 20.8571L23.8705 20.8571ZM23.8705 19.1429L23.8705 20.8571L22.1562 20.8571L22.1562 19.1429L23.8705 19.1429ZM23.8705 17.4286L23.8705 19.1429L22.1562 19.1429L22.1562 17.4286L23.8705 17.4286ZM23.8705 15.7143L23.8705 17.4286L22.1562 17.4286L22.1562 15.7143L23.8705 15.7143ZM23.8705 14L23.8705 15.7143L22.1562 15.7143L22.1562 14L23.8705 14ZM25.5848 17.4286L25.5848 19.1429L23.8705 19.1429L23.8705 17.4286L25.5848 17.4286ZM25.5848 19.1429L25.5848 20.8571L23.8705 20.8571L23.8705 19.1429L25.5848 19.1429ZM25.5848 20.8571L25.5848 22.5714L23.8705 22.5714L23.8705 20.8571L25.5848 20.8571ZM25.5848 22.5714L25.5848 24.2857L23.8705 24.2857L23.8705 22.5714L25.5848 22.5714ZM25.5848 15.7143L25.5848 17.4286L23.8705 17.4286L23.8705 15.7143L25.5848 15.7143ZM27.2991 14L27.2991 15.7143L25.5848 15.7143L25.5848 14L27.2991 14ZM27.2991 12.2857L27.2991 14L25.5848 14L25.5848 12.2857L27.2991 12.2857ZM25.5848 12.2857L25.5848 14L23.8705 14L23.8705 12.2857L25.5848 12.2857ZM25.5848 14L25.5848 15.7143L23.8705 15.7143L23.8705 14L25.5848 14ZM29.0134 12.2857L29.0134 14L27.2991 14L27.2991 12.2857L29.0134 12.2857ZM34.1562 8.85715L34.1562 10.5714L32.442 10.5714L32.442 8.85715L34.1562 8.85715ZM32.442 8.85715L32.442 10.5714L30.7277 10.5714L30.7277 8.85715L32.442 8.85715ZM32.442 10.5714L32.442 12.2857L30.7277 12.2857L30.7277 10.5714L32.442 10.5714ZM34.1562 10.5714L34.1562 12.2857L32.442 12.2857L32.442 10.5714L34.1562 10.5714ZM29.0134 24.2857L29.0134 26L27.2991 26L27.2991 24.2857L29.0134 24.2857ZM27.2991 24.2857L27.2991 26L25.5848 26L25.5848 24.2857L27.2991 24.2857ZM27.2991 22.5714L27.2991 24.2857L25.5848 24.2857L25.5848 22.5714L27.2991 22.5714ZM29.0134 22.5714L29.0134 24.2857L27.2991 24.2857L27.2991 22.5714L29.0134 22.5714ZM30.7277 22.5714L30.7277 24.2857L29.0134 24.2857L29.0134 22.5714L30.7277 22.5714ZM30.7277 12.2857L30.7277 14L29.0134 14L29.0134 12.2857L30.7277 12.2857ZM30.7277 14L30.7277 15.7143L29.0134 15.7143L29.0134 14L30.7277 14ZM29.0134 14L29.0134 15.7143L27.2991 15.7143L27.2991 14L29.0134 14ZM35.875 22.5714L37.5893 22.5714L37.5893 24.2857L35.875 24.2857L35.875 22.5714ZM37.5893 22.5714L39.3036 22.5714L39.3036 24.2857L37.5893 24.2857L37.5893 22.5714ZM37.5893 24.2857L39.3036 24.2857L39.3036 26L37.5893 26L37.5893 24.2857ZM35.875 24.2857L37.5893 24.2857L37.5893 26L35.875 26L35.875 24.2857ZM47.8884 22.5714L49.6027 22.5714L49.6027 24.2857L47.8884 24.2857L47.8884 22.5714ZM47.8884 24.2857L49.6027 24.2857L49.6027 26L47.8884 26L47.8884 24.2857ZM46.1741 24.2857L47.8884 24.2857L47.8884 26L46.1741 26L46.1741 24.2857ZM46.1741 22.5714L47.8884 22.5714L47.8884 24.2857L46.1741 24.2857L46.1741 22.5714ZM44.4598 24.2857L46.1741 24.2857L46.1741 26L44.4598 26L44.4598 24.2857ZM44.4598 22.5714L46.1741 22.5714L46.1741 24.2857L44.4598 24.2857L44.4598 22.5714ZM42.7455 22.5714L44.4598 22.5714L44.4598 24.2857L42.7455 24.2857L42.7455 22.5714ZM42.7455 20.8571L44.4598 20.8571L44.4598 22.5714L42.7455 22.5714L42.7455 20.8571ZM42.7455 19.1429L44.4598 19.1429L44.4598 20.8571L42.7455 20.8571L42.7455 19.1429ZM42.7455 17.4286L44.4598 17.4286L44.4598 19.1429L42.7455 19.1429L42.7455 17.4286ZM42.7455 15.7143L44.4598 15.7143L44.4598 17.4286L42.7455 17.4286L42.7455 15.7143ZM42.7455 14L44.4598 14L44.4598 15.7143L42.7455 15.7143L42.7455 14ZM44.4598 19.1429L46.1741 19.1429L46.1741 20.8571L44.4598 20.8571L44.4598 19.1429ZM44.4598 20.8571L46.1741 20.8571L46.1741 22.5714L44.4598 22.5714L44.4598 20.8571ZM44.4598 17.4286L46.1741 17.4286L46.1741 19.1429L44.4598 19.1429L44.4598 17.4286ZM44.4598 15.7143L46.1741 15.7143L46.1741 17.4286L44.4598 17.4286L44.4598 15.7143ZM44.4598 8.85715L46.1741 8.85715L46.1741 10.5714L44.4598 10.5714L44.4598 8.85715ZM44.4598 10.5714L46.1741 10.5714L46.1741 12.2857L44.4598 12.2857L44.4598 10.5714ZM44.4598 12.2857L46.1741 12.2857L46.1741 14L44.4598 14L44.4598 12.2857ZM44.4598 14L46.1741 14L46.1741 15.7143L44.4598 15.7143L44.4598 14ZM42.7455 12.2857L44.4598 12.2857L44.4598 14L42.7455 14L42.7455 12.2857ZM41.0312 14L42.7455 14L42.7455 15.7143L41.0312 15.7143L41.0312 14ZM46.1741 14L47.8884 14L47.8884 15.7143L46.1741 15.7143L46.1741 14ZM47.8884 14L49.6027 14L49.6027 15.7143L47.8884 15.7143L47.8884 14ZM42.7455 10.5714L44.4598 10.5714L44.4598 12.2857L42.7455 12.2857L42.7455 10.5714ZM41.0312 15.7143L42.7455 15.7143L42.7455 17.4286L41.0312 17.4286L41.0312 15.7143ZM46.1741 15.7143L47.8884 15.7143L47.8884 17.4286L46.1741 17.4286L46.1741 15.7143ZM47.8884 15.7143L49.6027 15.7143L49.6027 17.4286L47.8884 17.4286L47.8884 15.7143ZM51.3125 14L53.0268 14L53.0268 15.7143L51.3125 15.7143L51.3125 14ZM53.0268 15.7143L54.7411 15.7143L54.7411 17.4286L53.0268 17.4286L53.0268 15.7143ZM51.3125 15.7143L53.0268 15.7143L53.0268 17.4286L51.3125 17.4286L51.3125 15.7143ZM51.3125 17.4286L53.0268 17.4286L53.0268 19.1429L51.3125 19.1429L51.3125 17.4286ZM53.0268 17.4286L54.7411 17.4286L54.7411 19.1429L53.0268 19.1429L53.0268 17.4286ZM53.0268 19.1429L54.7411 19.1429L54.7411 20.8571L53.0268 20.8571L53.0268 19.1429ZM54.7411 19.1429L56.4554 19.1429L56.4554 20.8571L54.7411 20.8571L54.7411 19.1429ZM56.4554 19.1429L58.1696 19.1429L58.1696 20.8572L56.4554 20.8571L56.4554 19.1429ZM58.1696 17.4286L59.8839 17.4286L59.8839 19.1429L58.1696 19.1429L58.1696 17.4286ZM56.4554 17.4286L58.1696 17.4286L58.1696 19.1429L56.4554 19.1429L56.4554 17.4286ZM54.7411 17.4286L56.4554 17.4286L56.4554 19.1429L54.7411 19.1429L54.7411 17.4286ZM58.1696 19.1429L59.8839 19.1429L59.8839 20.8572L58.1696 20.8572L58.1696 19.1429ZM59.8839 19.1429L61.5982 19.1429L61.5982 20.8572L59.8839 20.8572L59.8839 19.1429ZM59.8839 20.8572L61.5982 20.8572L61.5982 22.5714L59.8839 22.5714L59.8839 20.8572ZM58.1696 20.8572L59.8839 20.8572L59.8839 22.5714L58.1696 22.5714L58.1696 20.8572ZM58.1696 22.5714L59.8839 22.5714L59.8839 24.2857L58.1696 24.2857L58.1696 22.5714ZM59.8839 22.5714L61.5982 22.5714L61.5982 24.2857L59.8839 24.2857L59.8839 22.5714ZM58.1696 24.2857L59.8839 24.2857L59.8839 26L58.1696 26L58.1696 24.2857ZM56.4554 22.5714L58.1696 22.5714L58.1696 24.2857L56.4554 24.2857L56.4554 22.5714ZM54.7411 22.5714L56.4554 22.5714L56.4554 24.2857L54.7411 24.2857L54.7411 22.5714ZM53.0268 22.5714L54.7411 22.5714L54.7411 24.2857L53.0268 24.2857L53.0268 22.5714ZM51.3125 22.5714L53.0268 22.5714L53.0268 24.2857L51.3125 24.2857L51.3125 22.5714ZM53.0268 24.2857L54.7411 24.2857L54.7411 26L53.0268 26L53.0268 24.2857ZM54.7411 24.2857L56.4554 24.2857L56.4554 26L54.7411 26L54.7411 24.2857ZM56.4554 24.2857L58.1696 24.2857L58.1696 26L56.4554 26L56.4554 24.2857ZM59.8839 14L61.5982 14L61.5982 15.7143L59.8839 15.7143L59.8839 14ZM58.1696 14L59.8839 14L59.8839 15.7143L58.1696 15.7143L58.1696 14ZM58.1696 12.2857L59.8839 12.2857L59.8839 14L58.1696 14L58.1696 12.2857ZM56.4554 12.2857L58.1696 12.2857L58.1696 14L56.4554 14L56.4554 12.2857ZM54.7411 12.2857L56.4554 12.2857L56.4554 14L54.7411 14L54.7411 12.2857ZM53.0268 12.2857L54.7411 12.2857L54.7411 14L53.0268 14L53.0268 12.2857ZM53.0268 14L54.7411 14L54.7411 15.7143L53.0268 15.7143L53.0268 14ZM54.7411 14L56.4554 14L56.4554 15.7143L54.7411 15.7143L54.7411 14ZM56.4554 14L58.1696 14L58.1696 15.7143L56.4554 15.7143L56.4554 14Z" fill="#F4C014"/>
<path fill-rule="evenodd" clip-rule="evenodd" d="M12.1837 3.17305C12.3512 3.23709 12.4939 3.35716 12.5889 3.51409C12.6839 3.67103 12.7258 3.85579 12.7079 4.03891L11.8909 12.3102L19.5045 11.0923C19.6576 11.0678 19.8148 11.0903 19.9567 11.157C20.0987 11.2236 20.2192 11.3316 20.3035 11.4675C20.3878 11.6035 20.4322 11.7615 20.4312 11.9222C20.4302 12.0829 20.3839 12.2393 20.2979 12.3721L11.2547 26.3591C11.1563 26.5117 11.0109 26.6252 10.8417 26.6813C10.6726 26.7374 10.4896 26.7329 10.3219 26.6685C10.1541 26.6042 10.0115 26.4837 9.91664 26.3264C9.82182 26.169 9.78033 25.9839 9.7988 25.8005L10.6159 17.5303L3.00238 18.7482C2.84927 18.7727 2.69207 18.7503 2.55011 18.6836C2.40815 18.6169 2.28762 18.509 2.20332 18.373C2.11903 18.2371 2.07465 18.079 2.07564 17.9183C2.07663 17.7576 2.12295 17.6012 2.20891 17.4684L11.2521 3.48147C11.3507 3.32932 11.4959 3.21629 11.6647 3.1604C11.8336 3.1045 12.0162 3.10895 12.1837 3.17305Z" fill="#F4C014"/>
</svg>
